<svg xmlns="http://www.w3.org/2000/svg" xmlns:xlink="http://www.w3.org/1999/xlink" width="1920" zoomAndPan="magnify" viewBox="0 0 1440 255.749984" height="341" preserveAspectRatio="xMidYMid meet" version="1.0"><defs><g/><clipPath id="6728fc353a"><path d="M 0.703125 0 L 1439.296875 0 L 1439.296875 255.5 L 0.703125 255.5 Z M 0.703125 0 " clip-rule="nonzero"/></clipPath><clipPath id="d8670123a9"><rect x="0" width="1268" y="0" height="216"/></clipPath></defs><g clip-path="url(#6728fc353a)"><path fill="#ffffff" d="M 0.703125 0 L 1439.296875 0 L 1439.296875 255.5 L 0.703125 255.5 Z M 0.703125 0 " fill-opacity="1" fill-rule="nonzero"/><path fill="#ffffff" d="M 0.703125 0 L 1439.296875 0 L 1439.296875 255.5 L 0.703125 255.5 Z M 0.703125 0 " fill-opacity="1" fill-rule="nonzero"/></g><g transform="matrix(1, 0, 0, 1, 86, 19)"><g clip-path="url(#d8670123a9)"><g fill="#000000" fill-opacity="1"><g transform="translate(0.599846, 154.440122)"><g><path d="M 53.71875 -149.640625 C 58.550781 -149.640625 62.742188 -149.175781 66.296875 -148.25 C 69.847656 -147.320312 73.46875 -146.078125 77.15625 -144.515625 C 79.007812 -143.804688 80.820312 -143.164062 82.59375 -142.59375 C 84.375 -142.03125 85.972656 -141.75 87.390625 -141.75 C 90.804688 -141.75 93.507812 -144.378906 95.5 -149.640625 L 99.546875 -149.640625 L 99.546875 -101.03125 L 95.5 -101.03125 C 94.78125 -108.5625 92.535156 -115.414062 88.765625 -121.59375 C 85.003906 -127.78125 80.316406 -132.648438 74.703125 -136.203125 C 69.097656 -139.753906 63.097656 -141.53125 56.703125 -141.53125 C 49.734375 -141.53125 43.757812 -139.429688 38.78125 -135.234375 C 33.8125 -131.046875 31.328125 -125.96875 31.328125 -120 C 31.328125 -113.039062 34.738281 -107.003906 41.5625 -101.890625 C 46.394531 -98.335938 53.144531 -94.070312 61.8125 -89.09375 C 69.488281 -84.40625 75.882812 -80.351562 81 -76.9375 C 86.113281 -73.53125 90.875 -69.835938 95.28125 -65.859375 C 99.257812 -62.023438 102.421875 -57.617188 104.765625 -52.640625 C 107.109375 -47.671875 108.28125 -42.554688 108.28125 -37.296875 C 108.28125 -30.054688 106.289062 -23.304688 102.3125 -17.046875 C 98.332031 -10.796875 92.894531 -5.859375 86 -2.234375 C 79.113281 1.390625 71.550781 3.203125 63.3125 3.203125 C 58.050781 3.203125 53.394531 2.738281 49.34375 1.8125 C 45.289062 0.882812 41.0625 -0.359375 36.65625 -1.921875 C 31.832031 -3.617188 28.210938 -4.46875 25.796875 -4.46875 C 21.953125 -4.46875 19.035156 -1.910156 17.046875 3.203125 L 13.21875 3.203125 L 13.21875 -46.046875 L 17.046875 -46.046875 C 19.460938 -33.398438 24.257812 -23.378906 31.4375 -15.984375 C 38.613281 -8.597656 47.882812 -4.90625 59.25 -4.90625 C 67.351562 -4.90625 74.035156 -7.109375 79.296875 -11.515625 C 84.554688 -15.921875 87.1875 -21.460938 87.1875 -28.140625 C 87.1875 -31.546875 86.546875 -34.671875 85.265625 -37.515625 C 83.984375 -40.359375 81.851562 -43.414062 78.875 -46.6875 C 76.164062 -49.519531 72.320312 -52.609375 67.34375 -55.953125 C 62.375 -59.296875 55.769531 -63.453125 47.53125 -68.421875 C 40.570312 -72.679688 35.242188 -76.054688 31.546875 -78.546875 C 27.847656 -81.035156 25.078125 -83.203125 23.234375 -85.046875 C 15.984375 -92.441406 12.359375 -101.320312 12.359375 -111.6875 C 12.359375 -118.800781 14.171875 -125.234375 17.796875 -130.984375 C 21.421875 -136.742188 26.359375 -141.289062 32.609375 -144.625 C 38.859375 -147.96875 45.894531 -149.640625 53.71875 -149.640625 Z M 53.71875 -149.640625 "/></g></g></g><g fill="#000000" fill-opacity="1"><g transform="translate(118.264745, 154.440122)"><g><path d="M 35.390625 -130.234375 L 38.796875 -130.234375 L 38.796875 -98.90625 L 61.171875 -98.90625 L 61.171875 -92.296875 L 38.796875 -92.296875 L 38.796875 -23.65625 C 38.796875 -19.96875 39.859375 -16.664062 41.984375 -13.75 C 44.117188 -10.832031 47.101562 -9.375 50.9375 -9.375 C 53.5 -9.375 55.773438 -9.976562 57.765625 -11.1875 C 59.753906 -12.394531 61.882812 -14.492188 64.15625 -17.484375 L 68.421875 -17.484375 C 64.722656 -10.660156 60.742188 -5.539062 56.484375 -2.125 C 52.222656 1.28125 47.25 2.984375 41.5625 2.984375 C 35.3125 2.984375 30.375 0.675781 26.75 -3.9375 C 23.125 -8.5625 21.3125 -14.851562 21.3125 -22.8125 L 21.3125 -92.296875 L 6.1875 -92.296875 L 6.1875 -96.5625 C 13.425781 -99.539062 19.53125 -103.90625 24.5 -109.65625 C 29.476562 -115.414062 33.109375 -122.273438 35.390625 -130.234375 Z M 35.390625 -130.234375 "/></g></g></g><g fill="#000000" fill-opacity="1"><g transform="translate(189.247377, 154.440122)"><g><path d="M 50.09375 -101.25 C 61.175781 -101.25 70.160156 -97.550781 77.046875 -90.15625 C 83.941406 -82.769531 87.390625 -73.179688 87.390625 -61.390625 L 20.46875 -61.390625 L 20.46875 -58.625 C 20.46875 -51.09375 21.957031 -43.878906 24.9375 -36.984375 C 27.925781 -30.085938 32.117188 -24.507812 37.515625 -20.25 C 42.910156 -15.988281 49.019531 -13.859375 55.84375 -13.859375 C 69.34375 -13.859375 78.796875 -21.390625 84.203125 -36.453125 L 87.390625 -34.75 C 85.117188 -23.09375 80.429688 -13.890625 73.328125 -7.140625 C 66.222656 -0.390625 57.695312 2.984375 47.75 2.984375 C 40.351562 2.984375 33.492188 1.066406 27.171875 -2.765625 C 20.847656 -6.609375 15.734375 -12.363281 11.828125 -20.03125 C 7.921875 -27.707031 5.96875 -37.015625 5.96875 -47.953125 C 5.96875 -58.472656 7.8125 -67.78125 11.5 -75.875 C 15.195312 -83.976562 20.382812 -90.234375 27.0625 -94.640625 C 33.75 -99.046875 41.425781 -101.25 50.09375 -101.25 Z M 44.125 -93.78125 C 38.15625 -93.78125 33.003906 -91.4375 28.671875 -86.75 C 24.335938 -82.0625 21.742188 -75.8125 20.890625 -68 L 65.4375 -68 C 65.15625 -75.664062 63.203125 -81.878906 59.578125 -86.640625 C 55.953125 -91.398438 50.800781 -93.78125 44.125 -93.78125 Z M 44.125 -93.78125 "/></g></g></g><g fill="#000000" fill-opacity="1"><g transform="translate(279.414475, 154.440122)"><g><path d="M 38.578125 -152.828125 L 38.578125 -22.375 C 38.578125 -15.269531 39.609375 -10.40625 41.671875 -7.78125 C 43.734375 -5.15625 47.460938 -3.84375 52.859375 -3.84375 L 52.859375 0 L 4.90625 0 L 4.90625 -3.84375 C 8.882812 -3.84375 12.007812 -4.265625 14.28125 -5.109375 C 16.550781 -5.960938 18.253906 -7.738281 19.390625 -10.4375 C 20.535156 -13.144531 21.109375 -17.125 21.109375 -22.375 L 21.109375 -123.203125 C 21.109375 -132.722656 17.765625 -137.484375 11.078125 -137.484375 C 9.234375 -137.484375 7.601562 -137.128906 6.1875 -136.421875 L 4.90625 -140.046875 L 34.75 -152.828125 Z M 38.578125 -152.828125 "/></g></g></g><g fill="#000000" fill-opacity="1"><g transform="translate(337.181099, 154.440122)"><g><path d="M 38.578125 -152.828125 L 38.578125 -22.375 C 38.578125 -15.269531 39.609375 -10.40625 41.671875 -7.78125 C 43.734375 -5.15625 47.460938 -3.84375 52.859375 -3.84375 L 52.859375 0 L 4.90625 0 L 4.90625 -3.84375 C 8.882812 -3.84375 12.007812 -4.265625 14.28125 -5.109375 C 16.550781 -5.960938 18.253906 -7.738281 19.390625 -10.4375 C 20.535156 -13.144531 21.109375 -17.125 21.109375 -22.375 L 21.109375 -123.203125 C 21.109375 -132.722656 17.765625 -137.484375 11.078125 -137.484375 C 9.234375 -137.484375 7.601562 -137.128906 6.1875 -136.421875 L 4.90625 -140.046875 L 34.75 -152.828125 Z M 38.578125 -152.828125 "/></g></g></g><g fill="#000000" fill-opacity="1"><g transform="translate(394.947723, 154.440122)"><g><path d="M 50.9375 -101.25 C 72.257812 -101.25 82.921875 -92.722656 82.921875 -75.671875 L 82.921875 -19.1875 C 82.921875 -15.34375 83.488281 -12.816406 84.625 -11.609375 C 85.757812 -10.410156 87.25 -9.8125 89.09375 -9.8125 C 91.226562 -9.8125 93.21875 -10.410156 95.0625 -11.609375 C 96.914062 -12.816406 99.617188 -15.128906 103.171875 -18.546875 L 103.171875 -13.21875 C 97.765625 -7.101562 93.320312 -2.875 89.84375 -0.53125 C 86.363281 1.8125 82.773438 2.984375 79.078125 2.984375 C 74.960938 2.984375 71.660156 1.53125 69.171875 -1.375 C 66.679688 -4.289062 65.4375 -8.59375 65.4375 -14.28125 C 59.1875 -8.3125 53.394531 -3.941406 48.0625 -1.171875 C 42.738281 1.597656 36.945312 2.984375 30.6875 2.984375 C 24.4375 2.984375 19.179688 0.640625 14.921875 -4.046875 C 10.660156 -8.734375 8.53125 -14.421875 8.53125 -21.109375 C 8.53125 -32.472656 14.566406 -41.28125 26.640625 -47.53125 C 38.148438 -53.644531 51.082031 -59.257812 65.4375 -64.375 L 65.4375 -70.34375 C 65.4375 -76.03125 65.046875 -80.578125 64.265625 -83.984375 C 63.484375 -87.390625 61.707031 -90.125 58.9375 -92.1875 C 56.164062 -94.25 51.9375 -95.28125 46.25 -95.28125 C 40.707031 -95.28125 36.585938 -93.929688 33.890625 -91.234375 C 31.191406 -88.535156 29.84375 -85.195312 29.84375 -81.21875 L 30.0625 -75.671875 C 30.0625 -73.253906 29.273438 -71.265625 27.703125 -69.703125 C 26.140625 -68.140625 24.148438 -67.359375 21.734375 -67.359375 C 19.035156 -67.359375 16.832031 -68.140625 15.125 -69.703125 C 13.425781 -71.265625 12.578125 -73.46875 12.578125 -76.3125 C 12.578125 -83.414062 15.914062 -89.347656 22.59375 -94.109375 C 29.269531 -98.867188 38.71875 -101.25 50.9375 -101.25 Z M 26.640625 -26.640625 C 26.640625 -21.804688 28.164062 -17.6875 31.21875 -14.28125 C 34.28125 -10.875 38.082031 -9.171875 42.625 -9.171875 C 49.875 -9.171875 57.476562 -12.722656 65.4375 -19.828125 L 65.4375 -58.625 C 55.488281 -54.5 47.8125 -50.90625 42.40625 -47.84375 C 37.007812 -44.789062 33.03125 -41.628906 30.46875 -38.359375 C 27.914062 -35.097656 26.640625 -31.191406 26.640625 -26.640625 Z M 26.640625 -26.640625 "/></g></g></g><g fill="#000000" fill-opacity="1"><g transform="translate(501.528219, 154.440122)"><g><path d="M 39.4375 -81.21875 L 39.859375 -81.21875 C 43.554688 -87.75 47.570312 -92.71875 51.90625 -96.125 C 56.238281 -99.539062 61.101562 -101.25 66.5 -101.25 C 70.34375 -101.25 73.46875 -100.078125 75.875 -97.734375 C 78.289062 -95.390625 79.5 -92.507812 79.5 -89.09375 C 79.5 -86.394531 78.539062 -84.117188 76.625 -82.265625 C 74.707031 -80.421875 72.539062 -79.5 70.125 -79.5 C 68.132812 -79.5 66.5 -79.890625 65.21875 -80.671875 C 63.945312 -81.460938 62.671875 -82.492188 61.390625 -83.765625 C 61.109375 -83.910156 60.609375 -84.335938 59.890625 -85.046875 C 59.179688 -85.753906 58.4375 -86.285156 57.65625 -86.640625 C 56.875 -87.003906 56.054688 -87.1875 55.203125 -87.1875 C 51.941406 -87.1875 49.132812 -85.867188 46.78125 -83.234375 C 44.4375 -80.609375 41.988281 -77.019531 39.4375 -72.46875 L 39.4375 -22.59375 C 39.4375 -17.050781 40.039062 -12.929688 41.25 -10.234375 C 42.457031 -7.535156 44.335938 -5.796875 46.890625 -5.015625 C 49.453125 -4.234375 53.21875 -3.84375 58.1875 -3.84375 L 58.1875 0 L 5.75 0 L 5.75 -3.84375 L 6.828125 -3.84375 C 12.078125 -3.84375 15.910156 -5.117188 18.328125 -7.671875 C 20.742188 -10.234375 21.953125 -14.921875 21.953125 -21.734375 L 21.953125 -70.34375 C 21.953125 -77.019531 21.238281 -81.390625 19.8125 -83.453125 C 18.394531 -85.515625 15.910156 -86.546875 12.359375 -86.546875 C 10.234375 -86.546875 8.457031 -86.117188 7.03125 -85.265625 L 5.75 -88.890625 L 35.59375 -101.25 L 39.4375 -101.25 Z M 39.4375 -81.21875 "/></g></g></g><g fill="#000000" fill-opacity="1"><g transform="translate(583.595173, 154.440122)"><g/></g></g><g fill="#000000" fill-opacity="1"><g transform="translate(636.885444, 154.440122)"><g><path d="M 53.71875 -101.25 C 59.820312 -101.25 65.503906 -100.179688 70.765625 -98.046875 C 76.023438 -95.921875 80.179688 -93.113281 83.234375 -89.625 C 86.296875 -86.144531 87.828125 -82.414062 87.828125 -78.4375 C 87.828125 -75.882812 86.863281 -73.753906 84.9375 -72.046875 C 83.019531 -70.335938 80.570312 -69.484375 77.59375 -69.484375 C 70.769531 -69.484375 67.003906 -73.320312 66.296875 -81 C 66.003906 -84.550781 64.578125 -87.75 62.015625 -90.59375 C 59.460938 -93.4375 55.488281 -94.859375 50.09375 -94.859375 C 41.707031 -94.859375 34.957031 -91.515625 29.84375 -84.828125 C 24.726562 -78.148438 22.171875 -69.269531 22.171875 -58.1875 C 22.171875 -44.976562 25.296875 -34.359375 31.546875 -26.328125 C 37.796875 -18.296875 46.109375 -14.28125 56.484375 -14.28125 C 64.160156 -14.28125 70.59375 -16.410156 75.78125 -20.671875 C 80.96875 -24.941406 84.695312 -30.84375 86.96875 -38.375 L 90.375 -36.875 C 87.53125 -24.9375 82.304688 -15.304688 74.703125 -7.984375 C 67.109375 -0.671875 58.476562 2.984375 48.8125 2.984375 C 40.570312 2.984375 33.109375 0.78125 26.421875 -3.625 C 19.742188 -8.03125 14.519531 -14.101562 10.75 -21.84375 C 6.988281 -29.59375 5.109375 -38.367188 5.109375 -48.171875 C 5.109375 -58.398438 7.171875 -67.53125 11.296875 -75.5625 C 15.421875 -83.59375 21.175781 -89.878906 28.5625 -94.421875 C 35.945312 -98.972656 44.332031 -101.25 53.71875 -101.25 Z M 53.71875 -101.25 "/></g></g></g><g fill="#000000" fill-opacity="1"><g transform="translate(730.249955, 154.440122)"><g><path d="M 50.9375 -101.25 C 72.257812 -101.25 82.921875 -92.722656 82.921875 -75.671875 L 82.921875 -19.1875 C 82.921875 -15.34375 83.488281 -12.816406 84.625 -11.609375 C 85.757812 -10.410156 87.25 -9.8125 89.09375 -9.8125 C 91.226562 -9.8125 93.21875 -10.410156 95.0625 -11.609375 C 96.914062 -12.816406 99.617188 -15.128906 103.171875 -18.546875 L 103.171875 -13.21875 C 97.765625 -7.101562 93.320312 -2.875 89.84375 -0.53125 C 86.363281 1.8125 82.773438 2.984375 79.078125 2.984375 C 74.960938 2.984375 71.660156 1.53125 69.171875 -1.375 C 66.679688 -4.289062 65.4375 -8.59375 65.4375 -14.28125 C 59.1875 -8.3125 53.394531 -3.941406 48.0625 -1.171875 C 42.738281 1.597656 36.945312 2.984375 30.6875 2.984375 C 24.4375 2.984375 19.179688 0.640625 14.921875 -4.046875 C 10.660156 -8.734375 8.53125 -14.421875 8.53125 -21.109375 C 8.53125 -32.472656 14.566406 -41.28125 26.640625 -47.53125 C 38.148438 -53.644531 51.082031 -59.257812 65.4375 -64.375 L 65.4375 -70.34375 C 65.4375 -76.03125 65.046875 -80.578125 64.265625 -83.984375 C 63.484375 -87.390625 61.707031 -90.125 58.9375 -92.1875 C 56.164062 -94.25 51.9375 -95.28125 46.25 -95.28125 C 40.707031 -95.28125 36.585938 -93.929688 33.890625 -91.234375 C 31.191406 -88.535156 29.84375 -85.195312 29.84375 -81.21875 L 30.0625 -75.671875 C 30.0625 -73.253906 29.273438 -71.265625 27.703125 -69.703125 C 26.140625 -68.140625 24.148438 -67.359375 21.734375 -67.359375 C 19.035156 -67.359375 16.832031 -68.140625 15.125 -69.703125 C 13.425781 -71.265625 12.578125 -73.46875 12.578125 -76.3125 C 12.578125 -83.414062 15.914062 -89.347656 22.59375 -94.109375 C 29.269531 -98.867188 38.71875 -101.25 50.9375 -101.25 Z M 26.640625 -26.640625 C 26.640625 -21.804688 28.164062 -17.6875 31.21875 -14.28125 C 34.28125 -10.875 38.082031 -9.171875 42.625 -9.171875 C 49.875 -9.171875 57.476562 -12.722656 65.4375 -19.828125 L 65.4375 -58.625 C 55.488281 -54.5 47.8125 -50.90625 42.40625 -47.84375 C 37.007812 -44.789062 33.03125 -41.628906 30.46875 -38.359375 C 27.914062 -35.097656 26.640625 -31.191406 26.640625 -26.640625 Z M 26.640625 -26.640625 "/></g></g></g><g fill="#000000" fill-opacity="1"><g transform="translate(836.830497, 154.440122)"><g><path d="M 39.4375 -81.21875 L 39.859375 -81.21875 C 43.554688 -87.75 47.570312 -92.71875 51.90625 -96.125 C 56.238281 -99.539062 61.101562 -101.25 66.5 -101.25 C 70.34375 -101.25 73.46875 -100.078125 75.875 -97.734375 C 78.289062 -95.390625 79.5 -92.507812 79.5 -89.09375 C 79.5 -86.394531 78.539062 -84.117188 76.625 -82.265625 C 74.707031 -80.421875 72.539062 -79.5 70.125 -79.5 C 68.132812 -79.5 66.5 -79.890625 65.21875 -80.671875 C 63.945312 -81.460938 62.671875 -82.492188 61.390625 -83.765625 C 61.109375 -83.910156 60.609375 -84.335938 59.890625 -85.046875 C 59.179688 -85.753906 58.4375 -86.285156 57.65625 -86.640625 C 56.875 -87.003906 56.054688 -87.1875 55.203125 -87.1875 C 51.941406 -87.1875 49.132812 -85.867188 46.78125 -83.234375 C 44.4375 -80.609375 41.988281 -77.019531 39.4375 -72.46875 L 39.4375 -22.59375 C 39.4375 -17.050781 40.039062 -12.929688 41.25 -10.234375 C 42.457031 -7.535156 44.335938 -5.796875 46.890625 -5.015625 C 49.453125 -4.234375 53.21875 -3.84375 58.1875 -3.84375 L 58.1875 0 L 5.75 0 L 5.75 -3.84375 L 6.828125 -3.84375 C 12.078125 -3.84375 15.910156 -5.117188 18.328125 -7.671875 C 20.742188 -10.234375 21.953125 -14.921875 21.953125 -21.734375 L 21.953125 -70.34375 C 21.953125 -77.019531 21.238281 -81.390625 19.8125 -83.453125 C 18.394531 -85.515625 15.910156 -86.546875 12.359375 -86.546875 C 10.234375 -86.546875 8.457031 -86.117188 7.03125 -85.265625 L 5.75 -88.890625 L 35.59375 -101.25 L 39.4375 -101.25 Z M 39.4375 -81.21875 "/></g></g></g><g fill="#000000" fill-opacity="1"><g transform="translate(916.126313, 154.440122)"><g><path d="M 50.09375 -101.25 C 61.175781 -101.25 70.160156 -97.550781 77.046875 -90.15625 C 83.941406 -82.769531 87.390625 -73.179688 87.390625 -61.390625 L 20.46875 -61.390625 L 20.46875 -58.625 C 20.46875 -51.09375 21.957031 -43.878906 24.9375 -36.984375 C 27.925781 -30.085938 32.117188 -24.507812 37.515625 -20.25 C 42.910156 -15.988281 49.019531 -13.859375 55.84375 -13.859375 C 69.34375 -13.859375 78.796875 -21.390625 84.203125 -36.453125 L 87.390625 -34.75 C 85.117188 -23.09375 80.429688 -13.890625 73.328125 -7.140625 C 66.222656 -0.390625 57.695312 2.984375 47.75 2.984375 C 40.351562 2.984375 33.492188 1.066406 27.171875 -2.765625 C 20.847656 -6.609375 15.734375 -12.363281 11.828125 -20.03125 C 7.921875 -27.707031 5.96875 -37.015625 5.96875 -47.953125 C 5.96875 -58.472656 7.8125 -67.78125 11.5 -75.875 C 15.195312 -83.976562 20.382812 -90.234375 27.0625 -94.640625 C 33.75 -99.046875 41.425781 -101.25 50.09375 -101.25 Z M 44.125 -93.78125 C 38.15625 -93.78125 33.003906 -91.4375 28.671875 -86.75 C 24.335938 -82.0625 21.742188 -75.8125 20.890625 -68 L 65.4375 -68 C 65.15625 -75.664062 63.203125 -81.878906 59.578125 -86.640625 C 55.953125 -91.398438 50.800781 -93.78125 44.125 -93.78125 Z M 44.125 -93.78125 "/></g></g></g><g fill="#000000" fill-opacity="1"><g transform="translate(1009.49087, 154.440122)"><g><path d="M 50.09375 -101.25 C 61.175781 -101.25 70.160156 -97.550781 77.046875 -90.15625 C 83.941406 -82.769531 87.390625 -73.179688 87.390625 -61.390625 L 20.46875 -61.390625 L 20.46875 -58.625 C 20.46875 -51.09375 21.957031 -43.878906 24.9375 -36.984375 C 27.925781 -30.085938 32.117188 -24.507812 37.515625 -20.25 C 42.910156 -15.988281 49.019531 -13.859375 55.84375 -13.859375 C 69.34375 -13.859375 78.796875 -21.390625 84.203125 -36.453125 L 87.390625 -34.75 C 85.117188 -23.09375 80.429688 -13.890625 73.328125 -7.140625 C 66.222656 -0.390625 57.695312 2.984375 47.75 2.984375 C 40.351562 2.984375 33.492188 1.066406 27.171875 -2.765625 C 20.847656 -6.609375 15.734375 -12.363281 11.828125 -20.03125 C 7.921875 -27.707031 5.96875 -37.015625 5.96875 -47.953125 C 5.96875 -58.472656 7.8125 -67.78125 11.5 -75.875 C 15.195312 -83.976562 20.382812 -90.234375 27.0625 -94.640625 C 33.75 -99.046875 41.425781 -101.25 50.09375 -101.25 Z M 44.125 -93.78125 C 38.15625 -93.78125 33.003906 -91.4375 28.671875 -86.75 C 24.335938 -82.0625 21.742188 -75.8125 20.890625 -68 L 65.4375 -68 C 65.15625 -75.664062 63.203125 -81.878906 59.578125 -86.640625 C 55.953125 -91.398438 50.800781 -93.78125 44.125 -93.78125 Z M 44.125 -93.78125 "/></g></g></g><g fill="#000000" fill-opacity="1"><g transform="translate(1102.855427, 154.440122)"><g><path d="M 39.4375 -81.21875 L 39.859375 -81.21875 C 43.554688 -87.75 47.570312 -92.71875 51.90625 -96.125 C 56.238281 -99.539062 61.101562 -101.25 66.5 -101.25 C 70.34375 -101.25 73.46875 -100.078125 75.875 -97.734375 C 78.289062 -95.390625 79.5 -92.507812 79.5 -89.09375 C 79.5 -86.394531 78.539062 -84.117188 76.625 -82.265625 C 74.707031 -80.421875 72.539062 -79.5 70.125 -79.5 C 68.132812 -79.5 66.5 -79.890625 65.21875 -80.671875 C 63.945312 -81.460938 62.671875 -82.492188 61.390625 -83.765625 C 61.109375 -83.910156 60.609375 -84.335938 59.890625 -85.046875 C 59.179688 -85.753906 58.4375 -86.285156 57.65625 -86.640625 C 56.875 -87.003906 56.054688 -87.1875 55.203125 -87.1875 C 51.941406 -87.1875 49.132812 -85.867188 46.78125 -83.234375 C 44.4375 -80.609375 41.988281 -77.019531 39.4375 -72.46875 L 39.4375 -22.59375 C 39.4375 -17.050781 40.039062 -12.929688 41.25 -10.234375 C 42.457031 -7.535156 44.335938 -5.796875 46.890625 -5.015625 C 49.453125 -4.234375 53.21875 -3.84375 58.1875 -3.84375 L 58.1875 0 L 5.75 0 L 5.75 -3.84375 L 6.828125 -3.84375 C 12.078125 -3.84375 15.910156 -5.117188 18.328125 -7.671875 C 20.742188 -10.234375 21.953125 -14.921875 21.953125 -21.734375 L 21.953125 -70.34375 C 21.953125 -77.019531 21.238281 -81.390625 19.8125 -83.453125 C 18.394531 -85.515625 15.910156 -86.546875 12.359375 -86.546875 C 10.234375 -86.546875 8.457031 -86.117188 7.03125 -85.265625 L 5.75 -88.890625 L 35.59375 -101.25 L 39.4375 -101.25 Z M 39.4375 -81.21875 "/></g></g></g><g fill="#000000" fill-opacity="1"><g transform="translate(1184.922381, 154.440122)"><g><path d="M 40.078125 -101.25 C 44.191406 -101.25 48.382812 -100.539062 52.65625 -99.125 C 55.632812 -98.125 58.046875 -97.625 59.890625 -97.625 C 61.171875 -97.625 62.523438 -98.050781 63.953125 -98.90625 L 67.78125 -98.90625 L 67.78125 -68.84375 L 63.953125 -68.84375 C 62.804688 -76.664062 60.03125 -83.023438 55.625 -87.921875 C 51.226562 -92.828125 45.898438 -95.28125 39.640625 -95.28125 C 34.671875 -95.28125 30.585938 -94.070312 27.390625 -91.65625 C 24.191406 -89.238281 22.59375 -85.972656 22.59375 -81.859375 C 22.59375 -78.585938 23.476562 -75.78125 25.25 -73.4375 C 27.03125 -71.09375 29.519531 -68.925781 32.71875 -66.9375 C 35.914062 -64.945312 40.925781 -62.175781 47.75 -58.625 C 56.5625 -53.925781 63.3125 -49.300781 68 -44.75 C 72.6875 -40.207031 75.03125 -34.101562 75.03125 -26.4375 C 75.03125 -19.613281 73.289062 -14 69.8125 -9.59375 C 66.332031 -5.1875 62.140625 -1.988281 57.234375 0 C 52.328125 1.988281 47.671875 2.984375 43.265625 2.984375 C 39.003906 2.984375 33.25 1.988281 26 0 C 22.738281 -0.988281 20.535156 -1.484375 19.390625 -1.484375 C 17.546875 -1.484375 16.269531 -0.988281 15.5625 0 L 11.078125 0 L 11.078125 -33.25 L 14.703125 -33.25 C 15.703125 -24.4375 18.898438 -17.296875 24.296875 -11.828125 C 29.703125 -6.359375 36.097656 -3.625 43.484375 -3.625 C 47.890625 -3.625 51.722656 -5.046875 54.984375 -7.890625 C 58.253906 -10.734375 59.890625 -14.285156 59.890625 -18.546875 C 59.890625 -23.515625 58.46875 -27.421875 55.625 -30.265625 C 52.789062 -33.109375 49.628906 -35.5625 46.140625 -37.625 C 42.660156 -39.6875 40.351562 -41 39.21875 -41.5625 C 38.65625 -41.988281 36.664062 -43.125 33.25 -44.96875 C 28.132812 -47.8125 24.046875 -50.332031 20.984375 -52.53125 C 17.929688 -54.738281 15.375 -57.617188 13.3125 -61.171875 C 11.257812 -64.722656 10.234375 -69.128906 10.234375 -74.390625 C 10.234375 -82.347656 13.039062 -88.8125 18.65625 -93.78125 C 24.269531 -98.757812 31.410156 -101.25 40.078125 -101.25 Z M 40.078125 -101.25 "/></g></g></g></g></g></svg>